<?xml version="1.0" standalone="no"?>
<!DOCTYPE svg PUBLIC "-//W3C//DTD SVG 20010904//EN"
 "http://www.w3.org/TR/2001/REC-SVG-20010904/DTD/svg10.dtd">
<svg version="1.0" xmlns="http://www.w3.org/2000/svg"
 width="546.000000pt" height="546.000000pt" viewBox="0 0 546.000000 546.000000"
 preserveAspectRatio="xMidYMid meet">
<metadata>
Created by potrace 1.14, written by Peter Selinger 2001-2017
</metadata>
<g transform="translate(0.000000,546.000000) scale(0.100000,-0.100000)"
fill="#000000" stroke="none">
<path d="M2905 5167 c-12 -7 -144 -111 -295 -233 -151 -121 -565 -446 -920
-723 -355 -277 -651 -510 -658 -519 -10 -14 -12 -200 -9 -957 3 -843 6 -981
22 -1035 3 -8 7 -33 11 -54 25 -164 125 -407 241 -586 280 -432 752 -718 1268
-769 78 -8 330 -6 370 2 11 3 43 8 70 11 259 35 574 177 805 363 332 268 572
698 617 1108 5 39 8 563 8 1165 l0 1095 -110 88 c-60 48 -117 93 -125 100 -8
7 -33 26 -55 42 -22 17 -92 71 -155 120 -63 50 -122 95 -130 102 -8 6 -49 38
-90 71 -175 137 -757 589 -780 605 -29 20 -57 21 -85 4z m272 -335 c125 -97
332 -258 458 -357 127 -98 246 -192 265 -207 19 -16 40 -32 45 -36 6 -4 87
-67 180 -140 l170 -132 0 -719 c0 -396 -3 -722 -5 -724 -9 -8 -189 -97 -197
-97 -5 0 -8 318 -7 707 0 401 -4 717 -9 728 -5 11 -67 65 -138 120 -71 55
-141 110 -156 122 -16 12 -230 180 -478 373 -247 193 -467 364 -487 381 l-37
30 77 64 c42 35 80 64 84 64 4 1 110 -79 235 -177z m-442 -104 c37 -29 93 -73
124 -98 32 -25 73 -56 91 -70 18 -14 70 -54 115 -90 45 -36 97 -76 115 -90 26
-20 234 -182 407 -318 12 -9 96 -75 187 -146 l166 -129 -2 -723 -3 -723 -102
-50 -103 -50 0 718 c0 670 -1 720 -17 739 -10 11 -119 98 -243 194 -124 96
-371 288 -550 428 -179 140 -346 270 -372 289 -26 20 -47 39 -47 43 -1 8 149
128 159 128 5 0 38 -24 75 -52z m-107 -369 c74 -57 146 -113 161 -124 37 -28
428 -332 471 -367 19 -16 40 -32 45 -36 6 -4 71 -55 145 -112 l135 -105 0
-698 c0 -494 -3 -696 -11 -693 -6 2 -66 23 -135 46 -68 23 -133 46 -144 50
-11 4 -76 27 -145 50 -69 23 -127 44 -129 46 -2 2 -3 227 -3 501 0 274 -2 506
-4 515 -3 10 -60 60 -127 113 -179 139 -250 195 -365 286 -108 85 -147 103
-177 87 -9 -6 -110 -83 -224 -172 -113 -89 -234 -183 -268 -209 l-61 -47 -271
92 c-148 51 -268 95 -265 99 2 4 84 70 182 146 97 75 184 143 192 150 8 6 114
89 235 183 121 94 235 183 254 198 19 15 84 66 145 113 l111 87 60 -47 c33
-26 120 -94 193 -152z m-18 -785 c124 -97 234 -182 244 -189 18 -14 19 -37 18
-735 -1 -724 -3 -752 -38 -844 -54 -140 -203 -264 -354 -297 -76 -16 -212 -6
-279 20 -131 53 -245 169 -292 299 l-24 67 0 739 0 740 240 188 c132 103 245
188 250 188 6 0 111 -79 235 -176z m-992 -181 l112 -38 0 -100 c0 -55 1 -377
1 -715 1 -671 4 -717 57 -871 51 -149 131 -276 244 -387 393 -388 1025 -382
1412 13 137 139 246 346 271 516 3 24 8 53 10 64 2 11 4 61 4 111 l1 91 276
134 c151 74 279 135 282 137 4 1 7 -100 6 -225 -2 -285 -8 -346 -51 -518 -129
-516 -529 -938 -1044 -1103 -163 -52 -299 -71 -494 -68 -235 4 -419 44 -615
133 -443 203 -763 587 -879 1058 -10 44 -22 100 -26 125 -4 25 -9 59 -12 75
-6 32 -12 1693 -6 1711 2 6 70 -13 171 -47 92 -32 218 -75 280 -96z m1782
-1264 c96 -33 177 -65 181 -71 9 -14 2 -147 -12 -221 -48 -267 -236 -504 -492
-622 -119 -54 -194 -69 -347 -69 -158 0 -244 19 -377 86 -89 44 -247 165 -203
155 14 -3 54 -13 90 -21 336 -79 678 138 762 482 9 38 15 173 18 384 l0 27
103 -36 c56 -19 181 -62 277 -94z"/>
</g>
</svg>
