<?xml version="1.0" standalone="no"?>
<!DOCTYPE svg PUBLIC "-//W3C//DTD SVG 20010904//EN"
 "http://www.w3.org/TR/2001/REC-SVG-20010904/DTD/svg10.dtd">
<svg version="1.0" xmlns="http://www.w3.org/2000/svg"
 width="500.000000pt" height="500.000000pt" viewBox="0 0 500.000000 500.000000"
 preserveAspectRatio="xMidYMid meet">
<metadata>
Created by potrace 1.11, written by Peter Selinger 2001-2013
</metadata>
<g transform="translate(0.000000,500.000000) scale(0.100000,-0.100000)"
fill="#000000" stroke="none">
<path d="M1495 4183 c-14 -14 -16 -29 -11 -82 16 -179 16 -403 2 -786 -10
-269 -16 -660 -16 -1090 0 -368 -5 -828 -11 -1022 -11 -327 -11 -354 5 -378
23 -36 66 -31 85 9 29 61 61 434 61 711 0 278 178 1042 384 1650 164 487 285
734 379 778 44 21 60 21 80 0 44 -49 46 -162 13 -713 -44 -728 -61 -1413 -47
-1825 14 -400 26 -465 86 -465 48 0 56 26 65 212 31 623 293 1620 581 2205 85
173 147 255 203 269 54 13 88 -53 118 -226 20 -115 14 -630 -12 -1025 -39
-610 -37 -1155 6 -1223 16 -24 67 -31 80 -10 4 6 9 165 10 352 1 188 10 492
20 676 25 462 25 1065 1 1210 -33 200 -83 301 -164 329 -64 23 -114 3 -188
-72 -191 -195 -494 -1062 -628 -1797 l-34 -185 -7 115 c-4 63 -2 367 4 675 23
1261 24 1349 11 1416 -24 118 -62 166 -140 176 -122 16 -238 -126 -366 -452
-195 -494 -320 -951 -448 -1640 -12 -64 -17 769 -8 1160 14 543 -3 977 -39
1045 -13 25 -52 26 -75 3z"/>
</g>
</svg>
