<?xml version="1.0" standalone="no"?>
<!DOCTYPE svg PUBLIC "-//W3C//DTD SVG 20010904//EN"
 "http://www.w3.org/TR/2001/REC-SVG-20010904/DTD/svg10.dtd">
<svg version="1.0" xmlns="http://www.w3.org/2000/svg"
 width="400.000000pt" height="400.000000pt" viewBox="0 0 400.000000 400.000000"
 preserveAspectRatio="xMidYMid meet">
<metadata>
Created by potrace 1.14, written by Peter Selinger 2001-2017
</metadata>
<g transform="translate(0.000000,400.000000) scale(0.100000,-0.100000)"
fill="#000000" stroke="none">
<path d="M1820 3297 c-47 -29 -287 -178 -535 -331 -247 -153 -460 -288 -472
-299 -32 -28 -30 -70 3 -96 15 -12 34 -21 43 -21 9 0 52 23 96 50 l80 50 6
-412 c8 -502 26 -662 101 -898 55 -173 127 -299 237 -414 191 -199 478 -299
769 -268 548 60 914 414 1019 986 11 59 16 187 20 476 5 460 10 436 -85 432
-73 -3 -204 -35 -249 -62 l-33 -19 0 94 c0 52 2 95 4 95 2 0 35 -18 74 -40 80
-46 100 -49 130 -17 45 48 27 80 -80 145 -91 54 -779 463 -923 548 -50 30 -97
54 -105 54 -8 0 -53 -24 -100 -53z m50 -752 l0 -615 65 0 65 0 0 605 c0 445 3
605 11 605 7 0 63 -30 125 -67 l114 -68 0 -527 0 -528 65 0 65 0 0 485 c0 267
3 485 6 485 3 0 71 -38 149 -85 l143 -86 7 -72 c3 -40 5 -236 3 -437 l-3 -364
-94 -13 c-343 -46 -544 -197 -611 -459 -11 -42 -20 -96 -20 -119 0 -41 1 -43
38 -49 88 -14 88 -14 101 68 18 126 45 182 125 262 57 57 86 77 146 101 97 40
208 63 342 70 l108 6 2 296 3 295 58 30 c39 20 78 31 118 34 l59 4 0 -223 c0
-437 -34 -648 -138 -854 -132 -264 -331 -425 -617 -500 -315 -83 -619 -12
-821 190 -146 146 -234 355 -279 666 -16 105 -34 579 -34 889 l-1 165 143 87
142 88 3 -485 2 -485 70 0 70 0 2 531 3 532 125 78 c69 43 128 78 133 79 4 0
7 -277 7 -615z"/>
</g>
</svg>
